<?xml version="1.0" encoding="UTF-8"?>
<svg version="1.1"  fill = "#4D7CFE" xmlns="http://www.w3.org/2000/svg" width="512" height="512">
<path d="M0 0 C4.53153006 4.04095523 6.56239861 9.12465018 7.24215031 15.10528564 C7.39072514 19.02374757 7.40893734 22.93147072 7.38293457 26.8515625 C7.38754843 28.36927163 7.3939046 29.88697629 7.40184355 31.40467167 C7.41849504 35.55882042 7.41030951 39.71260017 7.39789867 43.86675 C7.38883269 48.3536915 7.402826 52.84057041 7.41381836 57.32749939 C7.43159512 66.1131748 7.42776633 74.89871343 7.4161678 83.68439418 C7.40712584 90.83030779 7.40591279 97.97618314 7.41026306 105.12210083 C7.41087599 106.14008143 7.41148893 107.15806203 7.41212043 108.20689052 C7.41339938 110.2751523 7.41469624 112.34341406 7.4160108 114.41167581 C7.42741532 133.80416026 7.41430728 153.19656907 7.39280933 172.58904111 C7.37496001 189.20376721 7.37802483 205.81838142 7.39648438 222.43310547 C7.41793052 241.74487842 7.42629405 261.05658495 7.41403532 280.36836815 C7.4127612 282.43136977 7.41150371 284.4943714 7.41026306 286.55737305 C7.40933741 288.07973759 7.40933741 288.07973759 7.40839306 289.63285697 C7.40494976 296.76038123 7.41074688 303.88786315 7.42018127 311.01538086 C7.43144525 319.71622352 7.42827019 328.416922 7.4070583 337.11774832 C7.39660343 341.55128089 7.39232979 345.98457381 7.40565491 350.41810417 C7.41770261 354.48849787 7.41081596 358.55843313 7.3897447 362.62878609 C7.38533011 364.08977437 7.3874267 365.55080258 7.39724785 367.01176453 C7.55958891 393.20077057 -2.40281859 416.74538401 -20.6875 435.50390625 C-41.77240542 455.57747173 -66.88410868 461.6907466 -95.16210938 461.01123047 C-115.14567962 460.09240778 -134.50027981 450.04396703 -149.125 436.875 C-149.89457031 436.19953125 -150.66414063 435.5240625 -151.45703125 434.828125 C-168.98794358 418.49459547 -177.9970877 394.89068005 -179.09912109 371.24853516 C-179.67818608 348.10187332 -172.42423282 324.49247543 -156.5 307.3125 C-154.72931906 305.47765523 -152.92965363 303.6768815 -151.125 301.875 C-150.54363281 301.22273438 -149.96226562 300.57046875 -149.36328125 299.8984375 C-135.12953566 284.19470811 -111.95419534 276.38551166 -91.36621094 274.97705078 C-72.29052767 274.10846302 -57.66797651 278.68827763 -40.125 286.875 C-40.125 237.705 -40.125 188.535 -40.125 137.875 C-59.80898438 140.6903125 -79.49296875 143.505625 -99.7734375 146.40625 C-112.20570721 148.18374751 -124.63798668 149.96117632 -137.0703125 151.73828125 C-143.59798483 152.6713653 -150.12565466 153.60446685 -156.65332031 154.53759766 C-157.47150207 154.65455612 -158.28968382 154.77151459 -159.13265896 154.89201725 C-172.35640788 156.78236824 -185.58001517 158.67370826 -198.80357079 160.56541091 C-212.36584153 162.50554627 -225.92826303 164.44462501 -239.49082625 166.38271475 C-247.86542144 167.5794783 -256.23989672 168.77707434 -264.61422242 169.97572219 C-270.35012881 170.79664303 -276.08618079 171.61654119 -281.82235025 172.43562186 C-285.13603683 172.90882194 -288.44963254 173.38263643 -291.76310158 173.85735893 C-295.34867071 174.37099334 -298.9344788 174.88292515 -302.52035522 175.39440918 C-303.57675843 175.54615616 -304.63316163 175.69790315 -305.72157705 175.85424852 C-307.15400068 176.05802716 -307.15400068 176.05802716 -308.61536217 176.26592255 C-309.44391193 176.38439529 -310.27246169 176.50286803 -311.12611902 176.62493086 C-313.125 176.875 -313.125 176.875 -315.125 176.875 C-315.12315641 178.1023008 -315.12131283 179.32960159 -315.11941338 180.59409332 C-315.07601724 209.78401611 -315.04307882 238.97393465 -315.02286934 268.16388187 C-315.02036818 271.76338875 -315.01777952 275.36289556 -315.01513672 278.96240234 C-315.0146121 279.67894354 -315.01408748 280.39548473 -315.01354696 281.13373929 C-315.00486471 292.70772302 -314.98910685 304.28168671 -314.97069441 315.85565859 C-314.95193451 327.74798511 -314.94087045 339.64030119 -314.93682301 351.53264189 C-314.93433458 358.20547802 -314.92814087 364.87827774 -314.91353989 371.55110168 C-314.899888 377.84159429 -314.89579266 384.13202321 -314.89878464 390.42252922 C-314.89823786 392.72176905 -314.89430603 395.02101117 -314.88658905 397.32023811 C-314.7824241 429.97848441 -320.01893932 456.92470881 -343.25 481.5 C-362.41617954 499.9740675 -385.75959563 507.4377325 -412.01855469 507.29272461 C-436.49513367 506.75185257 -457.94753895 496.8002186 -475.5625 479.875 C-495.85267228 458.52563439 -501.95487547 433.51972363 -501.26123047 404.82177734 C-500.34158554 384.92909938 -490.15851459 365.55377087 -477.125 350.875 C-476.52300781 350.19050781 -475.92101562 349.50601562 -475.30078125 348.80078125 C-458.25955234 330.61632524 -434.11241604 321.9667139 -409.68066406 320.90917969 C-403.04858262 320.82048162 -396.63644387 321.69232289 -390.125 322.875 C-389.07183594 323.060625 -388.01867187 323.24625 -386.93359375 323.4375 C-380.97799069 324.70633687 -375.71991674 326.87546793 -370.2578125 329.48828125 C-369.56888916 329.81397095 -368.87996582 330.13966064 -368.17016602 330.47521973 C-366.48678535 331.27165004 -364.80565694 332.07283795 -363.125 332.875 C-363.12478263 332.29690555 -363.12456526 331.71881109 -363.12434131 331.12319863 C-363.11081901 296.84390492 -363.07130637 262.56474675 -362.99814438 228.28552897 C-362.98937786 224.16756657 -362.98082801 220.04960375 -362.97241211 215.93164062 C-362.97073305 215.11184467 -362.96905398 214.29204871 -362.96732404 213.44741045 C-362.94067018 200.18161416 -362.93156012 186.91586108 -362.92895857 173.65004076 C-362.92589675 160.0332827 -362.90392359 146.41664936 -362.86447543 132.79994762 C-362.84073655 124.40086448 -362.83166543 116.00203048 -362.84148689 107.60291843 C-362.84681165 101.83962394 -362.83373059 96.07655225 -362.8063371 90.31332119 C-362.79108113 86.99036629 -362.78651962 83.66832465 -362.79840279 80.34529305 C-362.81003216 76.73556274 -362.79089157 73.12723051 -362.76423645 69.51760864 C-362.77490971 68.47672628 -362.78558297 67.43584391 -362.79657966 66.36341965 C-362.68960744 58.57973112 -360.89428308 51.56081274 -355.17061162 45.96389133 C-342.971377 36.26864335 -320.46939744 36.9344367 -305.5793196 34.80691159 C-301.84261958 34.2720869 -298.10661089 33.73247023 -294.37049866 33.19355774 C-286.22659514 32.01979791 -278.08181317 30.85221762 -269.93683553 29.68593812 C-264.84201795 28.9563796 -259.74739064 28.2254986 -254.65279961 27.49435997 C-240.51806708 25.46604987 -226.38313596 23.43913822 -212.24738407 21.417943 C-210.89442538 21.2244887 -210.89442538 21.2244887 -209.51413419 21.02712623 C-207.68607016 20.76574348 -205.85800605 20.50436125 -204.02994186 20.24297956 C-203.12263185 20.11324797 -202.21532184 19.98351637 -201.28051758 19.84985352 C-199.91787279 19.6550177 -199.91787279 19.6550177 -198.52769982 19.4562458 C-183.80103357 17.3502954 -169.07587664 15.23398429 -154.35134644 13.11315552 C-139.19627485 10.93045874 -124.04001026 8.75621486 -108.88251108 6.59043902 C-100.38706349 5.37637601 -91.892154 4.15879926 -83.39854622 2.93192482 C-76.16957535 1.88776999 -68.93953665 0.85143005 -61.70802838 -0.17501041 C-58.0251903 -0.69798227 -54.34294607 -1.22443577 -50.66204071 -1.76085663 C-11.06465179 -7.52396322 -11.06465179 -7.52396322 0 0 Z M-46.61622715 45.48128414 C-47.56707614 45.61651987 -48.51792514 45.7517556 -49.49758774 45.89108938 C-50.54941787 46.04215424 -51.60124801 46.19321911 -52.68495178 46.34886169 C-53.79668131 46.50741467 -54.90841083 46.66596765 -56.05382913 46.82932526 C-59.80439154 47.36459809 -63.55465974 47.90190483 -67.30493164 48.43920898 C-69.98333572 48.82207914 -72.66179825 49.20453982 -75.34025574 49.58703613 C-82.63358526 50.62888858 -89.92660914 51.67286962 -97.21956944 52.71730304 C-101.76944356 53.36889159 -106.31937717 54.02006399 -110.86932182 54.67115974 C-123.45657092 56.47247048 -136.04374398 58.27431062 -148.63063908 60.07809353 C-149.43650753 60.19357881 -150.24237599 60.30906408 -151.0726647 60.42804891 C-151.8804989 60.54381642 -152.68833309 60.65958394 -153.52064711 60.77885956 C-155.1577262 61.01346257 -156.79480542 61.24806472 -158.43188477 61.48266602 C-159.24393867 61.59903768 -160.05599257 61.71540935 -160.89265417 61.83530743 C-174.06372835 63.72268984 -187.23534082 65.60628714 -200.4071892 67.48825812 C-213.91700627 69.41857216 -227.42637273 71.35201355 -240.93528837 73.28862625 C-248.52560284 74.37668456 -256.11610746 75.46337662 -263.70710945 76.54662895 C-270.16809635 77.46864137 -276.62866861 78.39349321 -283.08870823 79.32212048 C-286.38770881 79.7962618 -289.68694575 80.26856219 -292.98659897 80.73815346 C-296.55564186 81.24630477 -300.12391508 81.75954699 -303.69203186 82.27415466 C-304.74609272 82.42298881 -305.80015357 82.57182295 -306.88615566 82.72516721 C-308.30851754 82.93193243 -308.30851754 82.93193243 -309.75961399 83.14287472 C-310.99682535 83.32001425 -310.99682535 83.32001425 -312.25903088 83.50073236 C-314.13181304 83.69706645 -314.13181304 83.69706645 -315.125 84.875 C-315.2177833 86.25660115 -315.24247043 87.64288038 -315.23852539 89.02758789 C-315.23844986 89.90842545 -315.23837433 90.789263 -315.23829651 91.6967926 C-315.23313522 92.65407761 -315.22797394 93.61136261 -315.22265625 94.59765625 C-315.2212413 95.57286728 -315.21982635 96.54807831 -315.21836853 97.55284119 C-315.21275133 100.68109143 -315.20019593 103.80927123 -315.1875 106.9375 C-315.18248722 109.05273334 -315.17792393 111.16796781 -315.17382812 113.28320312 C-315.16277631 118.48049375 -315.1456251 123.67773962 -315.125 128.875 C-307.32794359 128.29665187 -299.61326252 127.47636592 -291.8762207 126.35681152 C-290.81114981 126.20557123 -289.74607891 126.05433093 -288.64873314 125.8985076 C-285.11560144 125.39593716 -281.58320048 124.88841136 -278.05078125 124.38085938 C-275.50385155 124.01751289 -272.95687874 123.65446849 -270.40986633 123.29170227 C-264.23345979 122.41142426 -258.05759092 121.52742891 -251.88190371 120.64212 C-244.68588985 119.61067529 -237.4893593 118.58285789 -230.29281092 117.55515045 C-217.45569557 115.72180289 -204.61907206 113.88503423 -191.78271484 112.04638672 C-179.33030396 110.26273649 -166.8775156 108.48175136 -154.42431641 106.70361328 C-140.84692124 104.76495139 -127.26971161 102.82500025 -113.69284534 100.8826375 C-112.97530584 100.77998336 -112.25776634 100.67732922 -111.51848322 100.57156435 C-110.07745879 100.36540502 -108.63643476 100.15924288 -107.19541115 99.95307788 C-102.17933147 99.23551004 -97.1631277 98.51881381 -92.1468811 97.80241394 C-85.4029204 96.83921793 -78.65929332 95.8737177 -71.91588402 94.90666771 C-69.43754543 94.55159375 -66.95910401 94.19723669 -64.48055458 93.84363747 C-61.10605831 93.36209477 -57.73194069 92.87798209 -54.35791016 92.39318848 C-53.36999135 92.25281835 -52.38207254 92.11244823 -51.3642168 91.96782446 C-50.46145354 91.83756447 -49.55869028 91.70730449 -48.62857056 91.57309723 C-47.84981379 91.4616218 -47.07105701 91.35014638 -46.26870155 91.23529291 C-44.20021547 90.8876415 -42.15987156 90.38371789 -40.125 89.875 C-40.125 75.025 -40.125 60.175 -40.125 44.875 C-42.34861795 44.875 -44.41342769 45.1663907 -46.61622715 45.48128414 Z M-115.5 333.1875 C-125.03634933 342.47971879 -131.14561435 352.36376219 -131.66845703 366.01049805 C-131.78120745 380.75044754 -127.35897212 391.11193731 -117.1796875 401.9453125 C-107.07788519 411.39274705 -95.48446223 414.39342481 -81.94921875 414.19140625 C-73.07141113 413.45687876 -65.24184136 410.15473915 -58.125 404.875 C-57.52042969 404.43414062 -56.91585937 403.99328125 -56.29296875 403.5390625 C-47.80412643 396.84415854 -42.11705193 386.48030503 -40.125 375.875 C-39.29945329 361.49143624 -41.0292197 350.586672 -50.125 338.875 C-55.96752789 332.55213005 -62.18749079 328.16379315 -70.125 324.875 C-71.115 324.4625 -72.105 324.05 -73.125 323.625 C-88.02847093 319.89913227 -103.78671801 323.01728509 -115.5 333.1875 Z M-443 383.6875 C-451.78691868 394.04631827 -454.64135542 404.65418688 -454.44140625 418.05078125 C-453.70687876 426.92858887 -450.40473915 434.75815864 -445.125 441.875 C-444.46371094 442.78185547 -444.46371094 442.78185547 -443.7890625 443.70703125 C-437.16980886 452.0999523 -427.38254428 457.34459662 -417.125 459.875 C-403.40246804 461.03313322 -391.71780149 459.35863435 -380.44140625 450.8515625 C-370.00285375 441.94446711 -363.29956334 430.44562153 -362.16015625 416.6484375 C-361.98106098 402.51981098 -367.32703174 390.93236014 -377.00390625 380.93359375 C-387.40877178 371.20136599 -398.88815218 368.3397485 -412.70703125 368.6328125 C-424.88479946 369.14992605 -434.68069169 374.91290616 -443 383.6875 Z "  transform="translate(503.125,5.125)"/>
</svg>
